<?xml version="1.0" encoding="UTF-8"?>
<svg id="Layer_1" data-name="Layer 1" xmlns="http://www.w3.org/2000/svg" viewBox="0 0 250 250">
  <defs>
    <style>
      .cls-1 {
        fill: #fff;
      }
    </style>
  </defs>
  <rect class="cls-1" x="77.24" y="74.8" width="86" height="89.27"/>
  <rect class="cls-1" x="90.24" y="65.01" width="58.72" height="12.3"/>
  <rect class="cls-1" x="160.85" y="87.61" width="16" height="31.82"/>
  <rect class="cls-1" x="162.39" y="120.16" width="27.96" height="33.59"/>
  <rect class="cls-1" x="87.49" y="160.89" width="32.72" height="17.59"/>
  <rect class="cls-1" x="84.95" y="175.97" width="16" height="5.15"/>
  <g>
    <path d="M201.58,128.42c-.02-.07-.05-.15-.07-.23-4.83-14.26-13.64-28.07-23.32-40.2-.01-.02-.02-.03-.03-.05-7.55-9.45-15.64-17.89-22.78-24.74-11.52-11.05-28.97-14.04-43.41-7.43-19.56,8.95-38.23,8.47-38.4,8.47l-8.32-.3,1.34,8.21c5.84,35.71-4.42,76.4-4.52,76.81l-2.21,8.58,8.87-.07c2.23-.01,4.45-.08,6.64-.19l.81,52.72,11.1-9.81c29.02-25.61,64.77-33.15,89.66-34.96,8.72-.63,16.51-5.16,21.36-12.42,4.83-7.24,6.03-16.12,3.28-24.39ZM77.24,143.51c1.25-6.36,2.82-15.68,3.82-26.52.8-7.73.88-14.04.88-14.04.15-4.88.15-9.92-.08-15.03-.35-3.72-.8-10.69-.8-10.69,0,0,6.17-.27,8.51-.67,7.88-1.26,17.81-3.69,28.08-8.39,9.39-4.3,20.77-2.34,28.29,4.88,1.48,1.41,3,2.91,4.55,4.46,6.71,6.36,15.85,17.52,16.97,18.89.07.09.11.14.11.14h.01c3.26,4.07,6.39,8.33,9.27,12.72-6.12-.42-12.19,1.17-17.43,4.66-18.68,12.47-47.57,27.21-82.18,29.59ZM186.95,145.23c-2.49,3.74-6.51,6.07-11,6.4-23.91,1.74-57.14,8.41-86.57,29.49l-.39-25.13c32.73-4.53,59.87-18.62,78-30.72,3.77-2.51,8.38-3.11,12.65-1.64,4.29,1.48,7.57,4.79,9,9.09,1.41,4.24.79,8.8-1.69,12.51Z"/>
    <path d="M88.99,86.72c-.75,0-1.4-.56-1.49-1.33-.09-.82.5-1.57,1.32-1.66,11.88-1.37,20.04-4.72,27.23-7.67,7.92-3.25,14.77-6.06,23.42-4.43.81.15,1.35.94,1.2,1.75-.15.81-.95,1.35-1.75,1.2-7.77-1.47-13.93,1.06-21.72,4.26-7.01,2.88-15.73,6.46-28.03,7.88-.06,0-.12,0-.17,0Z"/>
    <path d="M121.71,87.61c-.6,0-1.16-.36-1.4-.95-.3-.77.08-1.64.85-1.94l.27-.11c7.88-3.1,14.68-5.78,20.47-6.04.81-.03,1.53.6,1.56,1.43.04.83-.6,1.53-1.43,1.57-5.3.24-11.88,2.83-19.51,5.83l-.27.11c-.18.07-.37.1-.55.1Z"/>
    <path d="M90.07,96.7c-.75,0-1.4-.56-1.49-1.33-.09-.82.5-1.57,1.32-1.66,9.66-1.12,18.38-4.08,25.64-6.82.77-.29,1.64.1,1.93.87.29.77-.1,1.64-.87,1.93-7.43,2.81-16.38,5.84-26.36,7-.06,0-.12,0-.17,0Z"/>
    <path d="M125.45,97.21c-.61,0-1.19-.38-1.41-.98-.29-.78.11-1.64.89-1.92l2.25-.83c6.78-2.5,10.87-4,16.34-4.74.83-.11,1.58.47,1.69,1.29.11.82-.47,1.58-1.29,1.69-5.14.69-9.12,2.16-15.7,4.58l-2.25.83c-.17.06-.34.09-.52.09Z"/>
    <path d="M88.99,107.61c-.75,0-1.4-.56-1.49-1.33-.09-.82.5-1.57,1.32-1.66,10.4-1.19,21.16-4.88,30.43-8.24.77-.28,1.64.12,1.92.9.28.78-.12,1.64-.9,1.92-9.43,3.42-20.39,7.17-31.11,8.4-.06,0-.12,0-.17,0Z"/>
    <path d="M88.49,119.38c-.75,0-1.4-.56-1.49-1.33-.09-.82.5-1.57,1.32-1.66,11.76-1.35,25.85-6.72,38.28-11.45,14.95-5.69,27.86-10.61,34.78-8.19.78.27,1.19,1.13.92,1.91-.27.78-1.12,1.2-1.91.92-5.89-2.06-18.92,2.9-32.72,8.16-12.6,4.8-26.88,10.23-39.01,11.63-.06,0-.12,0-.17,0Z"/>
    <path d="M87.54,133.36c-.71,0-1.34-.51-1.47-1.24-.15-.82.4-1.6,1.21-1.74,21.29-3.81,38.34-11.84,52.04-18.3,12.63-5.95,21.76-10.25,28.07-8.05.78.27,1.19,1.13.92,1.91-.27.78-1.12,1.19-1.91.92-5.14-1.8-14.26,2.49-25.8,7.93-13.86,6.53-31.11,14.65-52.79,18.53-.09.02-.18.02-.27.02Z"/>
    <path d="M125.45,97.21c-.6,0-1.17-.36-1.4-.96l-3.74-9.6c-.3-.77.08-1.64.85-1.94.77-.3,1.64.08,1.94.85l3.74,9.6c.3.77-.08,1.64-.85,1.94-.18.07-.36.1-.54.1Z"/>
    <path d="M150.48,89.79c-.38,0-.75-.14-1.04-.42l-8.51-8.22c-.6-.58-.61-1.53-.04-2.12.58-.59,1.53-.61,2.12-.04l8.51,8.22c.6.58.61,1.53.04,2.12-.29.3-.69.46-1.08.46Z"/>
  </g>
</svg>